<svg width="800" height="800" viewBox="0 0 800 800" fill="none" xmlns="http://www.w3.org/2000/svg">
<path d="M0 400C0 179.086 179.086 0 400 0V0C620.914 0 800 179.086 800 400V400C800 620.914 620.914 800 400 800V800C179.086 800 0 620.914 0 400V400Z" fill="#88BDBC"/>
<path d="M0 400C0 179.086 179.086 0 400 0V0C620.914 0 800 179.086 800 400V400C800 620.914 620.914 800 400 800V800C179.086 800 0 620.914 0 400V400Z" fill="black" fill-opacity="0.2"/>
<g opacity="0.8" filter="url(#filter0_d_57_13)">
<rect x="25" y="25" width="750" height="750" rx="375" fill="url(#paint0_linear_57_13)"/>
<g filter="url(#filter1_d_57_13)">
<mask id="path-3-outside-1_57_13" maskUnits="userSpaceOnUse" x="281" y="397" width="242" height="276" fill="black">
<rect fill="white" x="281" y="397" width="242" height="276"/>
<path d="M467.459 540.4C481.059 542 493.459 548.933 504.659 561.2C515.859 573.2 521.459 588.667 521.459 607.6C521.459 626 520.126 639.733 517.459 648.8C514.793 657.6 510.259 663.733 503.859 667.2C497.459 670.4 487.726 672 474.659 672C464.259 672 455.593 670.533 448.659 667.6C441.993 664.667 437.059 660.4 433.859 654.8C430.659 648.933 429.059 641.467 429.059 632.4C429.059 620.667 428.526 610.933 427.459 603.2C426.659 595.2 425.459 588.933 423.859 584.4C422.526 579.6 420.393 576 417.459 573.6C414.526 571.2 411.593 569.733 408.659 569.2C405.993 568.4 402.259 568 397.459 568H376.259V612.4C376.259 633.733 372.126 649.067 363.859 658.4C355.593 667.467 343.459 672 327.459 672C311.993 672 300.526 667.733 293.059 659.2C285.859 650.4 282.259 635.733 282.259 615.2V448.4C282.259 431.6 285.326 419.067 291.459 410.8C297.859 402.267 308.126 398 322.259 398C330.526 398 337.326 398.533 342.659 399.6C348.259 400.667 353.593 402.667 358.659 405.6C363.993 408.267 367.859 412.667 370.259 418.8C372.926 424.667 374.259 432.267 374.259 441.6C374.259 449.867 374.126 459.2 373.859 469.6C373.859 479.733 373.859 486.933 373.859 491.2C373.859 494.667 374.659 497.6 376.259 500C378.126 502.4 380.793 504.4 384.259 506C387.993 507.333 392.526 508 397.859 508C409.326 508 416.926 503.467 420.659 494.4C424.659 485.333 426.659 466.8 426.659 438.8C426.659 424.933 430.393 414.667 437.859 408C445.326 401.333 457.326 398 473.859 398C491.726 398 503.726 401.467 509.859 408.4C515.993 415.333 519.059 427.733 519.059 445.6C519.059 474.933 513.859 497.733 503.459 514C493.326 530 481.326 538.8 467.459 540.4Z"/>
</mask>
<path d="M467.459 540.4C481.059 542 493.459 548.933 504.659 561.2C515.859 573.2 521.459 588.667 521.459 607.6C521.459 626 520.126 639.733 517.459 648.8C514.793 657.6 510.259 663.733 503.859 667.2C497.459 670.4 487.726 672 474.659 672C464.259 672 455.593 670.533 448.659 667.6C441.993 664.667 437.059 660.4 433.859 654.8C430.659 648.933 429.059 641.467 429.059 632.4C429.059 620.667 428.526 610.933 427.459 603.2C426.659 595.2 425.459 588.933 423.859 584.4C422.526 579.6 420.393 576 417.459 573.6C414.526 571.2 411.593 569.733 408.659 569.2C405.993 568.4 402.259 568 397.459 568H376.259V612.4C376.259 633.733 372.126 649.067 363.859 658.4C355.593 667.467 343.459 672 327.459 672C311.993 672 300.526 667.733 293.059 659.2C285.859 650.4 282.259 635.733 282.259 615.2V448.4C282.259 431.6 285.326 419.067 291.459 410.8C297.859 402.267 308.126 398 322.259 398C330.526 398 337.326 398.533 342.659 399.6C348.259 400.667 353.593 402.667 358.659 405.6C363.993 408.267 367.859 412.667 370.259 418.8C372.926 424.667 374.259 432.267 374.259 441.6C374.259 449.867 374.126 459.2 373.859 469.6C373.859 479.733 373.859 486.933 373.859 491.2C373.859 494.667 374.659 497.6 376.259 500C378.126 502.4 380.793 504.4 384.259 506C387.993 507.333 392.526 508 397.859 508C409.326 508 416.926 503.467 420.659 494.4C424.659 485.333 426.659 466.8 426.659 438.8C426.659 424.933 430.393 414.667 437.859 408C445.326 401.333 457.326 398 473.859 398C491.726 398 503.726 401.467 509.859 408.4C515.993 415.333 519.059 427.733 519.059 445.6C519.059 474.933 513.859 497.733 503.459 514C493.326 530 481.326 538.8 467.459 540.4Z" fill="#EDFAE9"/>
<path d="M467.459 540.4L467.345 539.407L467.343 541.393L467.459 540.4ZM504.659 561.2L503.921 561.874L503.928 561.882L504.659 561.2ZM517.459 648.8L518.416 649.09L518.419 649.082L517.459 648.8ZM503.859 667.2L504.307 668.094L504.321 668.087L504.336 668.079L503.859 667.2ZM448.659 667.6L448.257 668.515L448.263 668.518L448.27 668.521L448.659 667.6ZM433.859 654.8L432.981 655.279L432.986 655.288L432.991 655.296L433.859 654.8ZM427.459 603.2L426.464 603.3L426.466 603.318L426.469 603.337L427.459 603.2ZM423.859 584.4L422.896 584.668L422.905 584.701L422.916 584.733L423.859 584.4ZM417.459 573.6L416.826 574.374L416.826 574.374L417.459 573.6ZM408.659 569.2L408.372 570.158L408.426 570.174L408.481 570.184L408.659 569.2ZM376.259 568V567H375.259V568H376.259ZM363.859 658.4L364.598 659.074L364.603 659.068L364.608 659.063L363.859 658.4ZM293.059 659.2L292.285 659.833L292.296 659.846L292.307 659.859L293.059 659.2ZM291.459 410.8L290.659 410.2L290.656 410.204L291.459 410.8ZM342.659 399.6L342.463 400.581L342.472 400.582L342.659 399.6ZM358.659 405.6L358.158 406.465L358.185 406.481L358.212 406.494L358.659 405.6ZM370.259 418.8L369.328 419.164L369.338 419.189L369.349 419.214L370.259 418.8ZM373.859 469.6L372.86 469.574L372.859 469.587V469.6H373.859ZM376.259 500L375.427 500.555L375.448 500.585L375.47 500.614L376.259 500ZM384.259 506L383.84 506.908L383.881 506.927L383.923 506.942L384.259 506ZM420.659 494.4L419.744 493.996L419.739 494.008L419.735 494.019L420.659 494.4ZM437.859 408L438.525 408.746L438.525 408.746L437.859 408ZM509.859 408.4L510.608 407.737L509.859 408.4ZM503.459 514L502.617 513.461L502.615 513.465L503.459 514ZM467.343 541.393C480.655 542.959 492.847 549.746 503.921 561.874L505.398 560.526C494.072 548.121 481.463 541.041 467.576 539.407L467.343 541.393ZM503.928 561.882C514.929 573.669 520.459 588.878 520.459 607.6H522.459C522.459 588.455 516.79 572.731 505.39 560.518L503.928 561.882ZM520.459 607.6C520.459 625.977 519.125 639.593 516.5 648.518L518.419 649.082C521.127 639.874 522.459 626.023 522.459 607.6H520.459ZM516.502 648.51C513.891 657.128 509.494 663.01 503.383 666.321L504.336 668.079C511.024 664.456 515.695 658.072 518.416 649.09L516.502 648.51ZM503.412 666.306C497.223 669.4 487.679 671 474.659 671V673C487.773 673 497.696 671.4 504.307 668.094L503.412 666.306ZM474.659 671C464.346 671 455.822 669.544 449.049 666.679L448.27 668.521C455.364 671.522 464.173 673 474.659 673V671ZM449.062 666.685C442.565 663.826 437.808 659.694 434.728 654.304L432.991 655.296C436.311 661.106 441.42 665.507 448.257 668.515L449.062 666.685ZM434.737 654.321C431.641 648.644 430.059 641.356 430.059 632.4H428.059C428.059 641.577 429.678 649.222 432.981 655.279L434.737 654.321ZM430.059 632.4C430.059 620.641 429.525 610.858 428.45 603.063L426.469 603.337C427.527 611.008 428.059 620.692 428.059 632.4H430.059ZM428.454 603.1C427.651 595.066 426.441 588.709 424.802 584.067L422.916 584.733C424.478 589.157 425.668 595.334 426.464 603.3L428.454 603.1ZM424.823 584.132C423.452 579.195 421.229 575.392 418.093 572.826L416.826 574.374C419.556 576.608 421.601 580.004 422.896 584.668L424.823 584.132ZM418.093 572.826C415.063 570.347 411.978 568.787 408.838 568.216L408.481 570.184C411.208 570.68 413.989 572.053 416.826 574.374L418.093 572.826ZM408.947 568.242C406.143 567.401 402.297 567 397.459 567V569C402.222 569 405.842 569.399 408.372 570.158L408.947 568.242ZM397.459 567H376.259V569H397.459V567ZM375.259 568V612.4H377.259V568H375.259ZM375.259 612.4C375.259 633.649 371.134 648.678 363.111 657.737L364.608 659.063C373.118 649.455 377.259 633.818 377.259 612.4H375.259ZM363.12 657.726C355.097 666.527 343.268 671 327.459 671V673C343.65 673 356.089 668.407 364.598 659.074L363.12 657.726ZM327.459 671C312.171 671 301.027 666.787 293.812 658.541L292.307 659.859C300.025 668.68 311.814 673 327.459 673V671ZM293.833 658.567C286.858 650.041 283.259 635.668 283.259 615.2H281.259C281.259 635.799 284.861 650.759 292.285 659.833L293.833 658.567ZM283.259 615.2V448.4H281.259V615.2H283.259ZM283.259 448.4C283.259 431.69 286.315 419.412 292.262 411.396L290.656 410.204C284.337 418.722 281.259 431.51 281.259 448.4H283.259ZM292.259 411.4C298.413 403.196 308.33 399 322.259 399V397C307.922 397 297.306 401.337 290.659 410.2L292.259 411.4ZM322.259 399C330.49 399 337.219 399.532 342.463 400.581L342.855 398.619C337.434 397.535 330.562 397 322.259 397V399ZM342.472 400.582C347.959 401.627 353.186 403.587 358.158 406.465L359.16 404.735C353.999 401.746 348.56 399.706 342.846 398.618L342.472 400.582ZM358.212 406.494C363.3 409.039 367.008 413.236 369.328 419.164L371.191 418.436C368.711 412.098 364.685 407.495 359.107 404.706L358.212 406.494ZM369.349 419.214C371.936 424.906 373.259 432.35 373.259 441.6H375.259C375.259 432.183 373.916 424.428 371.17 418.386L369.349 419.214ZM373.259 441.6C373.259 449.856 373.126 459.181 372.86 469.574L374.859 469.626C375.126 459.219 375.259 449.877 375.259 441.6H373.259ZM372.859 469.6C372.859 469.62 372.859 469.64 372.859 469.659C372.859 469.679 372.859 469.699 372.859 469.719C372.859 469.738 372.859 469.758 372.859 469.778C372.859 469.798 372.859 469.817 372.859 469.837C372.859 469.857 372.859 469.876 372.859 469.896C372.859 469.916 372.859 469.935 372.859 469.955C372.859 469.975 372.859 469.994 372.859 470.014C372.859 470.034 372.859 470.053 372.859 470.073C372.859 470.092 372.859 470.112 372.859 470.132C372.859 470.151 372.859 470.171 372.859 470.19C372.859 470.21 372.859 470.23 372.859 470.249C372.859 470.269 372.859 470.288 372.859 470.308C372.859 470.327 372.859 470.347 372.859 470.366C372.859 470.386 372.859 470.405 372.859 470.425C372.859 470.444 372.859 470.464 372.859 470.483C372.859 470.503 372.859 470.522 372.859 470.541C372.859 470.561 372.859 470.58 372.859 470.6C372.859 470.619 372.859 470.638 372.859 470.658C372.859 470.677 372.859 470.697 372.859 470.716C372.859 470.735 372.859 470.755 372.859 470.774C372.859 470.793 372.859 470.813 372.859 470.832C372.859 470.851 372.859 470.871 372.859 470.89C372.859 470.909 372.859 470.929 372.859 470.948C372.859 470.967 372.859 470.986 372.859 471.006C372.859 471.025 372.859 471.044 372.859 471.063C372.859 471.083 372.859 471.102 372.859 471.121C372.859 471.14 372.859 471.159 372.859 471.179C372.859 471.198 372.859 471.217 372.859 471.236C372.859 471.255 372.859 471.274 372.859 471.294C372.859 471.313 372.859 471.332 372.859 471.351C372.859 471.37 372.859 471.389 372.859 471.408C372.859 471.427 372.859 471.447 372.859 471.466C372.859 471.485 372.859 471.504 372.859 471.523C372.859 471.542 372.859 471.561 372.859 471.58C372.859 471.599 372.859 471.618 372.859 471.637C372.859 471.656 372.859 471.675 372.859 471.694C372.859 471.713 372.859 471.732 372.859 471.751C372.859 471.77 372.859 471.789 372.859 471.808C372.859 471.827 372.859 471.846 372.859 471.865C372.859 471.883 372.859 471.902 372.859 471.921C372.859 471.94 372.859 471.959 372.859 471.978C372.859 471.997 372.859 472.016 372.859 472.035C372.859 472.053 372.859 472.072 372.859 472.091C372.859 472.11 372.859 472.129 372.859 472.147C372.859 472.166 372.859 472.185 372.859 472.204C372.859 472.223 372.859 472.241 372.859 472.26C372.859 472.279 372.859 472.298 372.859 472.316C372.859 472.335 372.859 472.354 372.859 472.373C372.859 472.391 372.859 472.41 372.859 472.429C372.859 472.447 372.859 472.466 372.859 472.485C372.859 472.503 372.859 472.522 372.859 472.541C372.859 472.559 372.859 472.578 372.859 472.597C372.859 472.615 372.859 472.634 372.859 472.653C372.859 472.671 372.859 472.69 372.859 472.708C372.859 472.727 372.859 472.746 372.859 472.764C372.859 472.783 372.859 472.801 372.859 472.82C372.859 472.838 372.859 472.857 372.859 472.875C372.859 472.894 372.859 472.912 372.859 472.931C372.859 472.949 372.859 472.968 372.859 472.986C372.859 473.005 372.859 473.023 372.859 473.042C372.859 473.06 372.859 473.079 372.859 473.097C372.859 473.115 372.859 473.134 372.859 473.152C372.859 473.171 372.859 473.189 372.859 473.207C372.859 473.226 372.859 473.244 372.859 473.262C372.859 473.281 372.859 473.299 372.859 473.318C372.859 473.336 372.859 473.354 372.859 473.373C372.859 473.391 372.859 473.409 372.859 473.427C372.859 473.446 372.859 473.464 372.859 473.482C372.859 473.501 372.859 473.519 372.859 473.537C372.859 473.555 372.859 473.574 372.859 473.592C372.859 473.61 372.859 473.628 372.859 473.646C372.859 473.665 372.859 473.683 372.859 473.701C372.859 473.719 372.859 473.737 372.859 473.755C372.859 473.774 372.859 473.792 372.859 473.81C372.859 473.828 372.859 473.846 372.859 473.864C372.859 473.882 372.859 473.9 372.859 473.919C372.859 473.937 372.859 473.955 372.859 473.973C372.859 473.991 372.859 474.009 372.859 474.027C372.859 474.045 372.859 474.063 372.859 474.081C372.859 474.099 372.859 474.117 372.859 474.135C372.859 474.153 372.859 474.171 372.859 474.189C372.859 474.207 372.859 474.225 372.859 474.243C372.859 474.261 372.859 474.279 372.859 474.297C372.859 474.315 372.859 474.333 372.859 474.351C372.859 474.369 372.859 474.386 372.859 474.404C372.859 474.422 372.859 474.44 372.859 474.458C372.859 474.476 372.859 474.494 372.859 474.512C372.859 474.529 372.859 474.547 372.859 474.565C372.859 474.583 372.859 474.601 372.859 474.618C372.859 474.636 372.859 474.654 372.859 474.672C372.859 474.69 372.859 474.707 372.859 474.725C372.859 474.743 372.859 474.761 372.859 474.778C372.859 474.796 372.859 474.814 372.859 474.832C372.859 474.849 372.859 474.867 372.859 474.885C372.859 474.902 372.859 474.92 372.859 474.938C372.859 474.955 372.859 474.973 372.859 474.991C372.859 475.008 372.859 475.026 372.859 475.044C372.859 475.061 372.859 475.079 372.859 475.096C372.859 475.114 372.859 475.132 372.859 475.149C372.859 475.167 372.859 475.184 372.859 475.202C372.859 475.219 372.859 475.237 372.859 475.254C372.859 475.272 372.859 475.289 372.859 475.307C372.859 475.324 372.859 475.342 372.859 475.359C372.859 475.377 372.859 475.394 372.859 475.412C372.859 475.429 372.859 475.447 372.859 475.464C372.859 475.482 372.859 475.499 372.859 475.517C372.859 475.534 372.859 475.551 372.859 475.569C372.859 475.586 372.859 475.604 372.859 475.621C372.859 475.638 372.859 475.656 372.859 475.673C372.859 475.69 372.859 475.708 372.859 475.725C372.859 475.742 372.859 475.76 372.859 475.777C372.859 475.794 372.859 475.812 372.859 475.829C372.859 475.846 372.859 475.863 372.859 475.881C372.859 475.898 372.859 475.915 372.859 475.932C372.859 475.95 372.859 475.967 372.859 475.984C372.859 476.001 372.859 476.019 372.859 476.036C372.859 476.053 372.859 476.07 372.859 476.087C372.859 476.105 372.859 476.122 372.859 476.139C372.859 476.156 372.859 476.173 372.859 476.19C372.859 476.207 372.859 476.224 372.859 476.242C372.859 476.259 372.859 476.276 372.859 476.293C372.859 476.31 372.859 476.327 372.859 476.344C372.859 476.361 372.859 476.378 372.859 476.395C372.859 476.412 372.859 476.429 372.859 476.446C372.859 476.463 372.859 476.48 372.859 476.497C372.859 476.514 372.859 476.531 372.859 476.548C372.859 476.565 372.859 476.582 372.859 476.599C372.859 476.616 372.859 476.633 372.859 476.65C372.859 476.667 372.859 476.684 372.859 476.701C372.859 476.718 372.859 476.735 372.859 476.751C372.859 476.768 372.859 476.785 372.859 476.802C372.859 476.819 372.859 476.836 372.859 476.853C372.859 476.869 372.859 476.886 372.859 476.903C372.859 476.92 372.859 476.937 372.859 476.953C372.859 476.97 372.859 476.987 372.859 477.004C372.859 477.021 372.859 477.037 372.859 477.054C372.859 477.071 372.859 477.088 372.859 477.104C372.859 477.121 372.859 477.138 372.859 477.154C372.859 477.171 372.859 477.188 372.859 477.205C372.859 477.221 372.859 477.238 372.859 477.255C372.859 477.271 372.859 477.288 372.859 477.304C372.859 477.321 372.859 477.338 372.859 477.354C372.859 477.371 372.859 477.388 372.859 477.404C372.859 477.421 372.859 477.437 372.859 477.454C372.859 477.47 372.859 477.487 372.859 477.504C372.859 477.52 372.859 477.537 372.859 477.553C372.859 477.57 372.859 477.586 372.859 477.603C372.859 477.619 372.859 477.636 372.859 477.652C372.859 477.669 372.859 477.685 372.859 477.702C372.859 477.718 372.859 477.734 372.859 477.751C372.859 477.767 372.859 477.784 372.859 477.8C372.859 477.817 372.859 477.833 372.859 477.849C372.859 477.866 372.859 477.882 372.859 477.899C372.859 477.915 372.859 477.931 372.859 477.948C372.859 477.964 372.859 477.98 372.859 477.997C372.859 478.013 372.859 478.029 372.859 478.046C372.859 478.062 372.859 478.078 372.859 478.094C372.859 478.111 372.859 478.127 372.859 478.143C372.859 478.159 372.859 478.176 372.859 478.192C372.859 478.208 372.859 478.224 372.859 478.241C372.859 478.257 372.859 478.273 372.859 478.289C372.859 478.305 372.859 478.322 372.859 478.338C372.859 478.354 372.859 478.37 372.859 478.386C372.859 478.402 372.859 478.418 372.859 478.435C372.859 478.451 372.859 478.467 372.859 478.483C372.859 478.499 372.859 478.515 372.859 478.531C372.859 478.547 372.859 478.563 372.859 478.579C372.859 478.595 372.859 478.611 372.859 478.628C372.859 478.644 372.859 478.66 372.859 478.676C372.859 478.692 372.859 478.708 372.859 478.724C372.859 478.74 372.859 478.756 372.859 478.772C372.859 478.787 372.859 478.803 372.859 478.819C372.859 478.835 372.859 478.851 372.859 478.867C372.859 478.883 372.859 478.899 372.859 478.915C372.859 478.931 372.859 478.947 372.859 478.963C372.859 478.978 372.859 478.994 372.859 479.01C372.859 479.026 372.859 479.042 372.859 479.058C372.859 479.073 372.859 479.089 372.859 479.105C372.859 479.121 372.859 479.137 372.859 479.153C372.859 479.168 372.859 479.184 372.859 479.2C372.859 479.216 372.859 479.231 372.859 479.247C372.859 479.263 372.859 479.279 372.859 479.294C372.859 479.31 372.859 479.326 372.859 479.341C372.859 479.357 372.859 479.373 372.859 479.388C372.859 479.404 372.859 479.42 372.859 479.435C372.859 479.451 372.859 479.467 372.859 479.482C372.859 479.498 372.859 479.514 372.859 479.529C372.859 479.545 372.859 479.56 372.859 479.576C372.859 479.592 372.859 479.607 372.859 479.623C372.859 479.638 372.859 479.654 372.859 479.669C372.859 479.685 372.859 479.7 372.859 479.716C372.859 479.731 372.859 479.747 372.859 479.762C372.859 479.778 372.859 479.793 372.859 479.809C372.859 479.824 372.859 479.84 372.859 479.855C372.859 479.871 372.859 479.886 372.859 479.902C372.859 479.917 372.859 479.932 372.859 479.948C372.859 479.963 372.859 479.979 372.859 479.994C372.859 480.009 372.859 480.025 372.859 480.04C372.859 480.056 372.859 480.071 372.859 480.086C372.859 480.102 372.859 480.117 372.859 480.132C372.859 480.148 372.859 480.163 372.859 480.178C372.859 480.193 372.859 480.209 372.859 480.224C372.859 480.239 372.859 480.255 372.859 480.27C372.859 480.285 372.859 480.3 372.859 480.315C372.859 480.331 372.859 480.346 372.859 480.361C372.859 480.376 372.859 480.392 372.859 480.407C372.859 480.422 372.859 480.437 372.859 480.452C372.859 480.467 372.859 480.483 372.859 480.498C372.859 480.513 372.859 480.528 372.859 480.543C372.859 480.558 372.859 480.573 372.859 480.588C372.859 480.603 372.859 480.619 372.859 480.634C372.859 480.649 372.859 480.664 372.859 480.679C372.859 480.694 372.859 480.709 372.859 480.724C372.859 480.739 372.859 480.754 372.859 480.769C372.859 480.784 372.859 480.799 372.859 480.814C372.859 480.829 372.859 480.844 372.859 480.859C372.859 480.874 372.859 480.889 372.859 480.904C372.859 480.919 372.859 480.933 372.859 480.948C372.859 480.963 372.859 480.978 372.859 480.993C372.859 481.008 372.859 481.023 372.859 481.038C372.859 481.053 372.859 481.067 372.859 481.082C372.859 481.097 372.859 481.112 372.859 481.127C372.859 481.142 372.859 481.156 372.859 481.171C372.859 481.186 372.859 481.201 372.859 481.216C372.859 481.23 372.859 481.245 372.859 481.26C372.859 481.275 372.859 481.289 372.859 481.304C372.859 481.319 372.859 481.334 372.859 481.348C372.859 481.363 372.859 481.378 372.859 481.392C372.859 481.407 372.859 481.422 372.859 481.436C372.859 481.451 372.859 481.466 372.859 481.48C372.859 481.495 372.859 481.51 372.859 481.524C372.859 481.539 372.859 481.554 372.859 481.568C372.859 481.583 372.859 481.597 372.859 481.612C372.859 481.626 372.859 481.641 372.859 481.656C372.859 481.67 372.859 481.685 372.859 481.699C372.859 481.714 372.859 481.728 372.859 481.743C372.859 481.757 372.859 481.772 372.859 481.786C372.859 481.801 372.859 481.815 372.859 481.83C372.859 481.844 372.859 481.859 372.859 481.873C372.859 481.888 372.859 481.902 372.859 481.916C372.859 481.931 372.859 481.945 372.859 481.96C372.859 481.974 372.859 481.988 372.859 482.003C372.859 482.017 372.859 482.032 372.859 482.046C372.859 482.06 372.859 482.075 372.859 482.089C372.859 482.103 372.859 482.118 372.859 482.132C372.859 482.146 372.859 482.16 372.859 482.175C372.859 482.189 372.859 482.203 372.859 482.218C372.859 482.232 372.859 482.246 372.859 482.26C372.859 482.275 372.859 482.289 372.859 482.303C372.859 482.317 372.859 482.331 372.859 482.346C372.859 482.36 372.859 482.374 372.859 482.388C372.859 482.402 372.859 482.417 372.859 482.431C372.859 482.445 372.859 482.459 372.859 482.473C372.859 482.487 372.859 482.501 372.859 482.515C372.859 482.53 372.859 482.544 372.859 482.558C372.859 482.572 372.859 482.586 372.859 482.6C372.859 482.614 372.859 482.628 372.859 482.642C372.859 482.656 372.859 482.67 372.859 482.684C372.859 482.698 372.859 482.712 372.859 482.726C372.859 482.74 372.859 482.754 372.859 482.768C372.859 482.782 372.859 482.796 372.859 482.81C372.859 482.824 372.859 482.838 372.859 482.852C372.859 482.866 372.859 482.88 372.859 482.894C372.859 482.908 372.859 482.921 372.859 482.935C372.859 482.949 372.859 482.963 372.859 482.977C372.859 482.991 372.859 483.005 372.859 483.019C372.859 483.032 372.859 483.046 372.859 483.06C372.859 483.074 372.859 483.088 372.859 483.101C372.859 483.115 372.859 483.129 372.859 483.143C372.859 483.157 372.859 483.17 372.859 483.184C372.859 483.198 372.859 483.212 372.859 483.225C372.859 483.239 372.859 483.253 372.859 483.266C372.859 483.28 372.859 483.294 372.859 483.307C372.859 483.321 372.859 483.335 372.859 483.348C372.859 483.362 372.859 483.376 372.859 483.389C372.859 483.403 372.859 483.417 372.859 483.43C372.859 483.444 372.859 483.458 372.859 483.471C372.859 483.485 372.859 483.498 372.859 483.512C372.859 483.525 372.859 483.539 372.859 483.553C372.859 483.566 372.859 483.58 372.859 483.593C372.859 483.607 372.859 483.62 372.859 483.634C372.859 483.647 372.859 483.661 372.859 483.674C372.859 483.688 372.859 483.701 372.859 483.715C372.859 483.728 372.859 483.741 372.859 483.755C372.859 483.768 372.859 483.782 372.859 483.795C372.859 483.809 372.859 483.822 372.859 483.835C372.859 483.849 372.859 483.862 372.859 483.876C372.859 483.889 372.859 483.902 372.859 483.916C372.859 483.929 372.859 483.942 372.859 483.956C372.859 483.969 372.859 483.982 372.859 483.996C372.859 484.009 372.859 484.022 372.859 484.035C372.859 484.049 372.859 484.062 372.859 484.075C372.859 484.088 372.859 484.102 372.859 484.115C372.859 484.128 372.859 484.141 372.859 484.155C372.859 484.168 372.859 484.181 372.859 484.194C372.859 484.207 372.859 484.221 372.859 484.234C372.859 484.247 372.859 484.26 372.859 484.273C372.859 484.286 372.859 484.3 372.859 484.313C372.859 484.326 372.859 484.339 372.859 484.352C372.859 484.365 372.859 484.378 372.859 484.391C372.859 484.404 372.859 484.417 372.859 484.43C372.859 484.444 372.859 484.457 372.859 484.47C372.859 484.483 372.859 484.496 372.859 484.509C372.859 484.522 372.859 484.535 372.859 484.548C372.859 484.561 372.859 484.574 372.859 484.587C372.859 484.6 372.859 484.612 372.859 484.625C372.859 484.638 372.859 484.651 372.859 484.664C372.859 484.677 372.859 484.69 372.859 484.703C372.859 484.716 372.859 484.729 372.859 484.742C372.859 484.755 372.859 484.767 372.859 484.78C372.859 484.793 372.859 484.806 372.859 484.819C372.859 484.832 372.859 484.844 372.859 484.857C372.859 484.87 372.859 484.883 372.859 484.896C372.859 484.908 372.859 484.921 372.859 484.934C372.859 484.947 372.859 484.959 372.859 484.972C372.859 484.985 372.859 484.998 372.859 485.01C372.859 485.023 372.859 485.036 372.859 485.049C372.859 485.061 372.859 485.074 372.859 485.087C372.859 485.099 372.859 485.112 372.859 485.125C372.859 485.137 372.859 485.15 372.859 485.162C372.859 485.175 372.859 485.188 372.859 485.2C372.859 485.213 372.859 485.226 372.859 485.238C372.859 485.251 372.859 485.263 372.859 485.276C372.859 485.288 372.859 485.301 372.859 485.314C372.859 485.326 372.859 485.339 372.859 485.351C372.859 485.364 372.859 485.376 372.859 485.389C372.859 485.401 372.859 485.414 372.859 485.426C372.859 485.439 372.859 485.451 372.859 485.463C372.859 485.476 372.859 485.488 372.859 485.501C372.859 485.513 372.859 485.526 372.859 485.538C372.859 485.55 372.859 485.563 372.859 485.575C372.859 485.588 372.859 485.6 372.859 485.612C372.859 485.625 372.859 485.637 372.859 485.649C372.859 485.662 372.859 485.674 372.859 485.686C372.859 485.699 372.859 485.711 372.859 485.723C372.859 485.736 372.859 485.748 372.859 485.76C372.859 485.772 372.859 485.785 372.859 485.797C372.859 485.809 372.859 485.821 372.859 485.834C372.859 485.846 372.859 485.858 372.859 485.87C372.859 485.882 372.859 485.895 372.859 485.907C372.859 485.919 372.859 485.931 372.859 485.943C372.859 485.956 372.859 485.968 372.859 485.98C372.859 485.992 372.859 486.004 372.859 486.016C372.859 486.028 372.859 486.04 372.859 486.053C372.859 486.065 372.859 486.077 372.859 486.089C372.859 486.101 372.859 486.113 372.859 486.125C372.859 486.137 372.859 486.149 372.859 486.161C372.859 486.173 372.859 486.185 372.859 486.197C372.859 486.209 372.859 486.221 372.859 486.233C372.859 486.245 372.859 486.257 372.859 486.269C372.859 486.281 372.859 486.293 372.859 486.305C372.859 486.317 372.859 486.329 372.859 486.341C372.859 486.353 372.859 486.364 372.859 486.376C372.859 486.388 372.859 486.4 372.859 486.412C372.859 486.424 372.859 486.436 372.859 486.448C372.859 486.459 372.859 486.471 372.859 486.483C372.859 486.495 372.859 486.507 372.859 486.518C372.859 486.53 372.859 486.542 372.859 486.554C372.859 486.566 372.859 486.577 372.859 486.589C372.859 486.601 372.859 486.613 372.859 486.624C372.859 486.636 372.859 486.648 372.859 486.66C372.859 486.671 372.859 486.683 372.859 486.695C372.859 486.706 372.859 486.718 372.859 486.73C372.859 486.741 372.859 486.753 372.859 486.765C372.859 486.776 372.859 486.788 372.859 486.8C372.859 486.811 372.859 486.823 372.859 486.834C372.859 486.846 372.859 486.858 372.859 486.869C372.859 486.881 372.859 486.892 372.859 486.904C372.859 486.915 372.859 486.927 372.859 486.939C372.859 486.95 372.859 486.962 372.859 486.973C372.859 486.985 372.859 486.996 372.859 487.008C372.859 487.019 372.859 487.031 372.859 487.042C372.859 487.053 372.859 487.065 372.859 487.076C372.859 487.088 372.859 487.099 372.859 487.111C372.859 487.122 372.859 487.134 372.859 487.145C372.859 487.156 372.859 487.168 372.859 487.179C372.859 487.19 372.859 487.202 372.859 487.213C372.859 487.225 372.859 487.236 372.859 487.247C372.859 487.259 372.859 487.27 372.859 487.281C372.859 487.292 372.859 487.304 372.859 487.315C372.859 487.326 372.859 487.338 372.859 487.349C372.859 487.36 372.859 487.371 372.859 487.383C372.859 487.394 372.859 487.405 372.859 487.416C372.859 487.428 372.859 487.439 372.859 487.45C372.859 487.461 372.859 487.472 372.859 487.484C372.859 487.495 372.859 487.506 372.859 487.517C372.859 487.528 372.859 487.539 372.859 487.55C372.859 487.562 372.859 487.573 372.859 487.584C372.859 487.595 372.859 487.606 372.859 487.617C372.859 487.628 372.859 487.639 372.859 487.65C372.859 487.661 372.859 487.672 372.859 487.684C372.859 487.695 372.859 487.706 372.859 487.717C372.859 487.728 372.859 487.739 372.859 487.75C372.859 487.761 372.859 487.772 372.859 487.783C372.859 487.794 372.859 487.805 372.859 487.815C372.859 487.826 372.859 487.837 372.859 487.848C372.859 487.859 372.859 487.87 372.859 487.881C372.859 487.892 372.859 487.903 372.859 487.914C372.859 487.925 372.859 487.935 372.859 487.946C372.859 487.957 372.859 487.968 372.859 487.979C372.859 487.99 372.859 488.001 372.859 488.011C372.859 488.022 372.859 488.033 372.859 488.044C372.859 488.055 372.859 488.065 372.859 488.076C372.859 488.087 372.859 488.098 372.859 488.108C372.859 488.119 372.859 488.13 372.859 488.141C372.859 488.151 372.859 488.162 372.859 488.173C372.859 488.184 372.859 488.194 372.859 488.205C372.859 488.216 372.859 488.226 372.859 488.237C372.859 488.248 372.859 488.258 372.859 488.269C372.859 488.279 372.859 488.29 372.859 488.301C372.859 488.311 372.859 488.322 372.859 488.333C372.859 488.343 372.859 488.354 372.859 488.364C372.859 488.375 372.859 488.385 372.859 488.396C372.859 488.407 372.859 488.417 372.859 488.428C372.859 488.438 372.859 488.449 372.859 488.459C372.859 488.47 372.859 488.48 372.859 488.491C372.859 488.501 372.859 488.512 372.859 488.522C372.859 488.532 372.859 488.543 372.859 488.553C372.859 488.564 372.859 488.574 372.859 488.585C372.859 488.595 372.859 488.605 372.859 488.616C372.859 488.626 372.859 488.637 372.859 488.647C372.859 488.657 372.859 488.668 372.859 488.678C372.859 488.688 372.859 488.699 372.859 488.709C372.859 488.719 372.859 488.73 372.859 488.74C372.859 488.75 372.859 488.761 372.859 488.771C372.859 488.781 372.859 488.791 372.859 488.802C372.859 488.812 372.859 488.822 372.859 488.832C372.859 488.843 372.859 488.853 372.859 488.863C372.859 488.873 372.859 488.884 372.859 488.894C372.859 488.904 372.859 488.914 372.859 488.924C372.859 488.934 372.859 488.945 372.859 488.955C372.859 488.965 372.859 488.975 372.859 488.985C372.859 488.995 372.859 489.005 372.859 489.015C372.859 489.026 372.859 489.036 372.859 489.046C372.859 489.056 372.859 489.066 372.859 489.076C372.859 489.086 372.859 489.096 372.859 489.106C372.859 489.116 372.859 489.126 372.859 489.136C372.859 489.146 372.859 489.156 372.859 489.166C372.859 489.176 372.859 489.186 372.859 489.196C372.859 489.206 372.859 489.216 372.859 489.226C372.859 489.236 372.859 489.246 372.859 489.256C372.859 489.266 372.859 489.276 372.859 489.286C372.859 489.295 372.859 489.305 372.859 489.315C372.859 489.325 372.859 489.335 372.859 489.345C372.859 489.355 372.859 489.364 372.859 489.374C372.859 489.384 372.859 489.394 372.859 489.404C372.859 489.414 372.859 489.423 372.859 489.433C372.859 489.443 372.859 489.453 372.859 489.462C372.859 489.472 372.859 489.482 372.859 489.492C372.859 489.501 372.859 489.511 372.859 489.521C372.859 489.531 372.859 489.54 372.859 489.55C372.859 489.56 372.859 489.569 372.859 489.579C372.859 489.589 372.859 489.598 372.859 489.608C372.859 489.618 372.859 489.627 372.859 489.637C372.859 489.647 372.859 489.656 372.859 489.666C372.859 489.676 372.859 489.685 372.859 489.695C372.859 489.704 372.859 489.714 372.859 489.723C372.859 489.733 372.859 489.743 372.859 489.752C372.859 489.762 372.859 489.771 372.859 489.781C372.859 489.79 372.859 489.8 372.859 489.809C372.859 489.819 372.859 489.828 372.859 489.838C372.859 489.847 372.859 489.857 372.859 489.866C372.859 489.876 372.859 489.885 372.859 489.894C372.859 489.904 372.859 489.913 372.859 489.923C372.859 489.932 372.859 489.941 372.859 489.951C372.859 489.96 372.859 489.97 372.859 489.979C372.859 489.988 372.859 489.998 372.859 490.007C372.859 490.016 372.859 490.026 372.859 490.035C372.859 490.044 372.859 490.054 372.859 490.063C372.859 490.072 372.859 490.082 372.859 490.091C372.859 490.1 372.859 490.109 372.859 490.119C372.859 490.128 372.859 490.137 372.859 490.146C372.859 490.156 372.859 490.165 372.859 490.174C372.859 490.183 372.859 490.192 372.859 490.202C372.859 490.211 372.859 490.22 372.859 490.229C372.859 490.238 372.859 490.247 372.859 490.256C372.859 490.266 372.859 490.275 372.859 490.284C372.859 490.293 372.859 490.302 372.859 490.311C372.859 490.32 372.859 490.329 372.859 490.338C372.859 490.348 372.859 490.357 372.859 490.366C372.859 490.375 372.859 490.384 372.859 490.393C372.859 490.402 372.859 490.411 372.859 490.42C372.859 490.429 372.859 490.438 372.859 490.447C372.859 490.456 372.859 490.465 372.859 490.474C372.859 490.483 372.859 490.492 372.859 490.501C372.859 490.509 372.859 490.518 372.859 490.527C372.859 490.536 372.859 490.545 372.859 490.554C372.859 490.563 372.859 490.572 372.859 490.581C372.859 490.59 372.859 490.598 372.859 490.607C372.859 490.616 372.859 490.625 372.859 490.634C372.859 490.643 372.859 490.651 372.859 490.66C372.859 490.669 372.859 490.678 372.859 490.687C372.859 490.695 372.859 490.704 372.859 490.713C372.859 490.722 372.859 490.73 372.859 490.739C372.859 490.748 372.859 490.757 372.859 490.765C372.859 490.774 372.859 490.783 372.859 490.791C372.859 490.8 372.859 490.809 372.859 490.817C372.859 490.826 372.859 490.835 372.859 490.843C372.859 490.852 372.859 490.861 372.859 490.869C372.859 490.878 372.859 490.887 372.859 490.895C372.859 490.904 372.859 490.912 372.859 490.921C372.859 490.93 372.859 490.938 372.859 490.947C372.859 490.955 372.859 490.964 372.859 490.972C372.859 490.981 372.859 490.989 372.859 490.998C372.859 491.006 372.859 491.015 372.859 491.023C372.859 491.032 372.859 491.04 372.859 491.049C372.859 491.057 372.859 491.066 372.859 491.074C372.859 491.083 372.859 491.091 372.859 491.099C372.859 491.108 372.859 491.116 372.859 491.125C372.859 491.133 372.859 491.141 372.859 491.15C372.859 491.158 372.859 491.167 372.859 491.175C372.859 491.183 372.859 491.192 372.859 491.2H374.859C374.859 491.192 374.859 491.183 374.859 491.175C374.859 491.167 374.859 491.158 374.859 491.15C374.859 491.141 374.859 491.133 374.859 491.125C374.859 491.116 374.859 491.108 374.859 491.099C374.859 491.091 374.859 491.083 374.859 491.074C374.859 491.066 374.859 491.057 374.859 491.049C374.859 491.04 374.859 491.032 374.859 491.023C374.859 491.015 374.859 491.006 374.859 490.998C374.859 490.989 374.859 490.981 374.859 490.972C374.859 490.964 374.859 490.955 374.859 490.947C374.859 490.938 374.859 490.93 374.859 490.921C374.859 490.912 374.859 490.904 374.859 490.895C374.859 490.887 374.859 490.878 374.859 490.869C374.859 490.861 374.859 490.852 374.859 490.843C374.859 490.835 374.859 490.826 374.859 490.817C374.859 490.809 374.859 490.8 374.859 490.791C374.859 490.783 374.859 490.774 374.859 490.765C374.859 490.757 374.859 490.748 374.859 490.739C374.859 490.73 374.859 490.722 374.859 490.713C374.859 490.704 374.859 490.695 374.859 490.687C374.859 490.678 374.859 490.669 374.859 490.66C374.859 490.651 374.859 490.643 374.859 490.634C374.859 490.625 374.859 490.616 374.859 490.607C374.859 490.598 374.859 490.59 374.859 490.581C374.859 490.572 374.859 490.563 374.859 490.554C374.859 490.545 374.859 490.536 374.859 490.527C374.859 490.518 374.859 490.509 374.859 490.501C374.859 490.492 374.859 490.483 374.859 490.474C374.859 490.465 374.859 490.456 374.859 490.447C374.859 490.438 374.859 490.429 374.859 490.42C374.859 490.411 374.859 490.402 374.859 490.393C374.859 490.384 374.859 490.375 374.859 490.366C374.859 490.357 374.859 490.348 374.859 490.338C374.859 490.329 374.859 490.32 374.859 490.311C374.859 490.302 374.859 490.293 374.859 490.284C374.859 490.275 374.859 490.266 374.859 490.256C374.859 490.247 374.859 490.238 374.859 490.229C374.859 490.22 374.859 490.211 374.859 490.202C374.859 490.192 374.859 490.183 374.859 490.174C374.859 490.165 374.859 490.156 374.859 490.146C374.859 490.137 374.859 490.128 374.859 490.119C374.859 490.109 374.859 490.1 374.859 490.091C374.859 490.082 374.859 490.072 374.859 490.063C374.859 490.054 374.859 490.044 374.859 490.035C374.859 490.026 374.859 490.016 374.859 490.007C374.859 489.998 374.859 489.988 374.859 489.979C374.859 489.97 374.859 489.96 374.859 489.951C374.859 489.941 374.859 489.932 374.859 489.923C374.859 489.913 374.859 489.904 374.859 489.894C374.859 489.885 374.859 489.876 374.859 489.866C374.859 489.857 374.859 489.847 374.859 489.838C374.859 489.828 374.859 489.819 374.859 489.809C374.859 489.8 374.859 489.79 374.859 489.781C374.859 489.771 374.859 489.762 374.859 489.752C374.859 489.743 374.859 489.733 374.859 489.723C374.859 489.714 374.859 489.704 374.859 489.695C374.859 489.685 374.859 489.676 374.859 489.666C374.859 489.656 374.859 489.647 374.859 489.637C374.859 489.627 374.859 489.618 374.859 489.608C374.859 489.598 374.859 489.589 374.859 489.579C374.859 489.569 374.859 489.56 374.859 489.55C374.859 489.54 374.859 489.531 374.859 489.521C374.859 489.511 374.859 489.501 374.859 489.492C374.859 489.482 374.859 489.472 374.859 489.462C374.859 489.453 374.859 489.443 374.859 489.433C374.859 489.423 374.859 489.414 374.859 489.404C374.859 489.394 374.859 489.384 374.859 489.374C374.859 489.364 374.859 489.355 374.859 489.345C374.859 489.335 374.859 489.325 374.859 489.315C374.859 489.305 374.859 489.295 374.859 489.286C374.859 489.276 374.859 489.266 374.859 489.256C374.859 489.246 374.859 489.236 374.859 489.226C374.859 489.216 374.859 489.206 374.859 489.196C374.859 489.186 374.859 489.176 374.859 489.166C374.859 489.156 374.859 489.146 374.859 489.136C374.859 489.126 374.859 489.116 374.859 489.106C374.859 489.096 374.859 489.086 374.859 489.076C374.859 489.066 374.859 489.056 374.859 489.046C374.859 489.036 374.859 489.026 374.859 489.015C374.859 489.005 374.859 488.995 374.859 488.985C374.859 488.975 374.859 488.965 374.859 488.955C374.859 488.945 374.859 488.934 374.859 488.924C374.859 488.914 374.859 488.904 374.859 488.894C374.859 488.884 374.859 488.873 374.859 488.863C374.859 488.853 374.859 488.843 374.859 488.832C374.859 488.822 374.859 488.812 374.859 488.802C374.859 488.791 374.859 488.781 374.859 488.771C374.859 488.761 374.859 488.75 374.859 488.74C374.859 488.73 374.859 488.719 374.859 488.709C374.859 488.699 374.859 488.688 374.859 488.678C374.859 488.668 374.859 488.657 374.859 488.647C374.859 488.637 374.859 488.626 374.859 488.616C374.859 488.605 374.859 488.595 374.859 488.585C374.859 488.574 374.859 488.564 374.859 488.553C374.859 488.543 374.859 488.532 374.859 488.522C374.859 488.512 374.859 488.501 374.859 488.491C374.859 488.48 374.859 488.47 374.859 488.459C374.859 488.449 374.859 488.438 374.859 488.428C374.859 488.417 374.859 488.407 374.859 488.396C374.859 488.385 374.859 488.375 374.859 488.364C374.859 488.354 374.859 488.343 374.859 488.333C374.859 488.322 374.859 488.311 374.859 488.301C374.859 488.29 374.859 488.279 374.859 488.269C374.859 488.258 374.859 488.248 374.859 488.237C374.859 488.226 374.859 488.216 374.859 488.205C374.859 488.194 374.859 488.184 374.859 488.173C374.859 488.162 374.859 488.151 374.859 488.141C374.859 488.13 374.859 488.119 374.859 488.108C374.859 488.098 374.859 488.087 374.859 488.076C374.859 488.065 374.859 488.055 374.859 488.044C374.859 488.033 374.859 488.022 374.859 488.011C374.859 488.001 374.859 487.99 374.859 487.979C374.859 487.968 374.859 487.957 374.859 487.946C374.859 487.935 374.859 487.925 374.859 487.914C374.859 487.903 374.859 487.892 374.859 487.881C374.859 487.87 374.859 487.859 374.859 487.848C374.859 487.837 374.859 487.826 374.859 487.815C374.859 487.805 374.859 487.794 374.859 487.783C374.859 487.772 374.859 487.761 374.859 487.75C374.859 487.739 374.859 487.728 374.859 487.717C374.859 487.706 374.859 487.695 374.859 487.684C374.859 487.672 374.859 487.661 374.859 487.65C374.859 487.639 374.859 487.628 374.859 487.617C374.859 487.606 374.859 487.595 374.859 487.584C374.859 487.573 374.859 487.562 374.859 487.55C374.859 487.539 374.859 487.528 374.859 487.517C374.859 487.506 374.859 487.495 374.859 487.484C374.859 487.472 374.859 487.461 374.859 487.45C374.859 487.439 374.859 487.428 374.859 487.416C374.859 487.405 374.859 487.394 374.859 487.383C374.859 487.371 374.859 487.36 374.859 487.349C374.859 487.338 374.859 487.326 374.859 487.315C374.859 487.304 374.859 487.292 374.859 487.281C374.859 487.27 374.859 487.259 374.859 487.247C374.859 487.236 374.859 487.225 374.859 487.213C374.859 487.202 374.859 487.19 374.859 487.179C374.859 487.168 374.859 487.156 374.859 487.145C374.859 487.134 374.859 487.122 374.859 487.111C374.859 487.099 374.859 487.088 374.859 487.076C374.859 487.065 374.859 487.053 374.859 487.042C374.859 487.031 374.859 487.019 374.859 487.008C374.859 486.996 374.859 486.985 374.859 486.973C374.859 486.962 374.859 486.95 374.859 486.939C374.859 486.927 374.859 486.915 374.859 486.904C374.859 486.892 374.859 486.881 374.859 486.869C374.859 486.858 374.859 486.846 374.859 486.834C374.859 486.823 374.859 486.811 374.859 486.8C374.859 486.788 374.859 486.776 374.859 486.765C374.859 486.753 374.859 486.741 374.859 486.73C374.859 486.718 374.859 486.706 374.859 486.695C374.859 486.683 374.859 486.671 374.859 486.66C374.859 486.648 374.859 486.636 374.859 486.624C374.859 486.613 374.859 486.601 374.859 486.589C374.859 486.577 374.859 486.566 374.859 486.554C374.859 486.542 374.859 486.53 374.859 486.518C374.859 486.507 374.859 486.495 374.859 486.483C374.859 486.471 374.859 486.459 374.859 486.448C374.859 486.436 374.859 486.424 374.859 486.412C374.859 486.4 374.859 486.388 374.859 486.376C374.859 486.364 374.859 486.353 374.859 486.341C374.859 486.329 374.859 486.317 374.859 486.305C374.859 486.293 374.859 486.281 374.859 486.269C374.859 486.257 374.859 486.245 374.859 486.233C374.859 486.221 374.859 486.209 374.859 486.197C374.859 486.185 374.859 486.173 374.859 486.161C374.859 486.149 374.859 486.137 374.859 486.125C374.859 486.113 374.859 486.101 374.859 486.089C374.859 486.077 374.859 486.065 374.859 486.053C374.859 486.04 374.859 486.028 374.859 486.016C374.859 486.004 374.859 485.992 374.859 485.98C374.859 485.968 374.859 485.956 374.859 485.943C374.859 485.931 374.859 485.919 374.859 485.907C374.859 485.895 374.859 485.882 374.859 485.87C374.859 485.858 374.859 485.846 374.859 485.834C374.859 485.821 374.859 485.809 374.859 485.797C374.859 485.785 374.859 485.772 374.859 485.76C374.859 485.748 374.859 485.736 374.859 485.723C374.859 485.711 374.859 485.699 374.859 485.686C374.859 485.674 374.859 485.662 374.859 485.649C374.859 485.637 374.859 485.625 374.859 485.612C374.859 485.6 374.859 485.588 374.859 485.575C374.859 485.563 374.859 485.55 374.859 485.538C374.859 485.526 374.859 485.513 374.859 485.501C374.859 485.488 374.859 485.476 374.859 485.463C374.859 485.451 374.859 485.439 374.859 485.426C374.859 485.414 374.859 485.401 374.859 485.389C374.859 485.376 374.859 485.364 374.859 485.351C374.859 485.339 374.859 485.326 374.859 485.314C374.859 485.301 374.859 485.288 374.859 485.276C374.859 485.263 374.859 485.251 374.859 485.238C374.859 485.226 374.859 485.213 374.859 485.2C374.859 485.188 374.859 485.175 374.859 485.162C374.859 485.15 374.859 485.137 374.859 485.125C374.859 485.112 374.859 485.099 374.859 485.087C374.859 485.074 374.859 485.061 374.859 485.049C374.859 485.036 374.859 485.023 374.859 485.01C374.859 484.998 374.859 484.985 374.859 484.972C374.859 484.959 374.859 484.947 374.859 484.934C374.859 484.921 374.859 484.908 374.859 484.896C374.859 484.883 374.859 484.87 374.859 484.857C374.859 484.844 374.859 484.832 374.859 484.819C374.859 484.806 374.859 484.793 374.859 484.78C374.859 484.767 374.859 484.755 374.859 484.742C374.859 484.729 374.859 484.716 374.859 484.703C374.859 484.69 374.859 484.677 374.859 484.664C374.859 484.651 374.859 484.638 374.859 484.625C374.859 484.612 374.859 484.6 374.859 484.587C374.859 484.574 374.859 484.561 374.859 484.548C374.859 484.535 374.859 484.522 374.859 484.509C374.859 484.496 374.859 484.483 374.859 484.47C374.859 484.457 374.859 484.444 374.859 484.43C374.859 484.417 374.859 484.404 374.859 484.391C374.859 484.378 374.859 484.365 374.859 484.352C374.859 484.339 374.859 484.326 374.859 484.313C374.859 484.3 374.859 484.286 374.859 484.273C374.859 484.26 374.859 484.247 374.859 484.234C374.859 484.221 374.859 484.207 374.859 484.194C374.859 484.181 374.859 484.168 374.859 484.155C374.859 484.141 374.859 484.128 374.859 484.115C374.859 484.102 374.859 484.088 374.859 484.075C374.859 484.062 374.859 484.049 374.859 484.035C374.859 484.022 374.859 484.009 374.859 483.996C374.859 483.982 374.859 483.969 374.859 483.956C374.859 483.942 374.859 483.929 374.859 483.916C374.859 483.902 374.859 483.889 374.859 483.876C374.859 483.862 374.859 483.849 374.859 483.835C374.859 483.822 374.859 483.809 374.859 483.795C374.859 483.782 374.859 483.768 374.859 483.755C374.859 483.741 374.859 483.728 374.859 483.715C374.859 483.701 374.859 483.688 374.859 483.674C374.859 483.661 374.859 483.647 374.859 483.634C374.859 483.62 374.859 483.607 374.859 483.593C374.859 483.58 374.859 483.566 374.859 483.553C374.859 483.539 374.859 483.525 374.859 483.512C374.859 483.498 374.859 483.485 374.859 483.471C374.859 483.458 374.859 483.444 374.859 483.43C374.859 483.417 374.859 483.403 374.859 483.389C374.859 483.376 374.859 483.362 374.859 483.348C374.859 483.335 374.859 483.321 374.859 483.307C374.859 483.294 374.859 483.28 374.859 483.266C374.859 483.253 374.859 483.239 374.859 483.225C374.859 483.212 374.859 483.198 374.859 483.184C374.859 483.17 374.859 483.157 374.859 483.143C374.859 483.129 374.859 483.115 374.859 483.101C374.859 483.088 374.859 483.074 374.859 483.06C374.859 483.046 374.859 483.032 374.859 483.019C374.859 483.005 374.859 482.991 374.859 482.977C374.859 482.963 374.859 482.949 374.859 482.935C374.859 482.921 374.859 482.908 374.859 482.894C374.859 482.88 374.859 482.866 374.859 482.852C374.859 482.838 374.859 482.824 374.859 482.81C374.859 482.796 374.859 482.782 374.859 482.768C374.859 482.754 374.859 482.74 374.859 482.726C374.859 482.712 374.859 482.698 374.859 482.684C374.859 482.67 374.859 482.656 374.859 482.642C374.859 482.628 374.859 482.614 374.859 482.6C374.859 482.586 374.859 482.572 374.859 482.558C374.859 482.544 374.859 482.53 374.859 482.515C374.859 482.501 374.859 482.487 374.859 482.473C374.859 482.459 374.859 482.445 374.859 482.431C374.859 482.417 374.859 482.402 374.859 482.388C374.859 482.374 374.859 482.36 374.859 482.346C374.859 482.331 374.859 482.317 374.859 482.303C374.859 482.289 374.859 482.275 374.859 482.26C374.859 482.246 374.859 482.232 374.859 482.218C374.859 482.203 374.859 482.189 374.859 482.175C374.859 482.16 374.859 482.146 374.859 482.132C374.859 482.118 374.859 482.103 374.859 482.089C374.859 482.075 374.859 482.06 374.859 482.046C374.859 482.032 374.859 482.017 374.859 482.003C374.859 481.988 374.859 481.974 374.859 481.96C374.859 481.945 374.859 481.931 374.859 481.916C374.859 481.902 374.859 481.888 374.859 481.873C374.859 481.859 374.859 481.844 374.859 481.83C374.859 481.815 374.859 481.801 374.859 481.786C374.859 481.772 374.859 481.757 374.859 481.743C374.859 481.728 374.859 481.714 374.859 481.699C374.859 481.685 374.859 481.67 374.859 481.656C374.859 481.641 374.859 481.626 374.859 481.612C374.859 481.597 374.859 481.583 374.859 481.568C374.859 481.554 374.859 481.539 374.859 481.524C374.859 481.51 374.859 481.495 374.859 481.48C374.859 481.466 374.859 481.451 374.859 481.436C374.859 481.422 374.859 481.407 374.859 481.392C374.859 481.378 374.859 481.363 374.859 481.348C374.859 481.334 374.859 481.319 374.859 481.304C374.859 481.289 374.859 481.275 374.859 481.26C374.859 481.245 374.859 481.23 374.859 481.216C374.859 481.201 374.859 481.186 374.859 481.171C374.859 481.156 374.859 481.142 374.859 481.127C374.859 481.112 374.859 481.097 374.859 481.082C374.859 481.067 374.859 481.053 374.859 481.038C374.859 481.023 374.859 481.008 374.859 480.993C374.859 480.978 374.859 480.963 374.859 480.948C374.859 480.933 374.859 480.919 374.859 480.904C374.859 480.889 374.859 480.874 374.859 480.859C374.859 480.844 374.859 480.829 374.859 480.814C374.859 480.799 374.859 480.784 374.859 480.769C374.859 480.754 374.859 480.739 374.859 480.724C374.859 480.709 374.859 480.694 374.859 480.679C374.859 480.664 374.859 480.649 374.859 480.634C374.859 480.619 374.859 480.603 374.859 480.588C374.859 480.573 374.859 480.558 374.859 480.543C374.859 480.528 374.859 480.513 374.859 480.498C374.859 480.483 374.859 480.467 374.859 480.452C374.859 480.437 374.859 480.422 374.859 480.407C374.859 480.392 374.859 480.376 374.859 480.361C374.859 480.346 374.859 480.331 374.859 480.315C374.859 480.3 374.859 480.285 374.859 480.27C374.859 480.255 374.859 480.239 374.859 480.224C374.859 480.209 374.859 480.193 374.859 480.178C374.859 480.163 374.859 480.148 374.859 480.132C374.859 480.117 374.859 480.102 374.859 480.086C374.859 480.071 374.859 480.056 374.859 480.04C374.859 480.025 374.859 480.009 374.859 479.994C374.859 479.979 374.859 479.963 374.859 479.948C374.859 479.932 374.859 479.917 374.859 479.902C374.859 479.886 374.859 479.871 374.859 479.855C374.859 479.84 374.859 479.824 374.859 479.809C374.859 479.793 374.859 479.778 374.859 479.762C374.859 479.747 374.859 479.731 374.859 479.716C374.859 479.7 374.859 479.685 374.859 479.669C374.859 479.654 374.859 479.638 374.859 479.623C374.859 479.607 374.859 479.592 374.859 479.576C374.859 479.56 374.859 479.545 374.859 479.529C374.859 479.514 374.859 479.498 374.859 479.482C374.859 479.467 374.859 479.451 374.859 479.435C374.859 479.42 374.859 479.404 374.859 479.388C374.859 479.373 374.859 479.357 374.859 479.341C374.859 479.326 374.859 479.31 374.859 479.294C374.859 479.279 374.859 479.263 374.859 479.247C374.859 479.231 374.859 479.216 374.859 479.2C374.859 479.184 374.859 479.168 374.859 479.153C374.859 479.137 374.859 479.121 374.859 479.105C374.859 479.089 374.859 479.073 374.859 479.058C374.859 479.042 374.859 479.026 374.859 479.01C374.859 478.994 374.859 478.978 374.859 478.963C374.859 478.947 374.859 478.931 374.859 478.915C374.859 478.899 374.859 478.883 374.859 478.867C374.859 478.851 374.859 478.835 374.859 478.819C374.859 478.803 374.859 478.787 374.859 478.772C374.859 478.756 374.859 478.74 374.859 478.724C374.859 478.708 374.859 478.692 374.859 478.676C374.859 478.66 374.859 478.644 374.859 478.628C374.859 478.611 374.859 478.595 374.859 478.579C374.859 478.563 374.859 478.547 374.859 478.531C374.859 478.515 374.859 478.499 374.859 478.483C374.859 478.467 374.859 478.451 374.859 478.435C374.859 478.418 374.859 478.402 374.859 478.386C374.859 478.37 374.859 478.354 374.859 478.338C374.859 478.322 374.859 478.305 374.859 478.289C374.859 478.273 374.859 478.257 374.859 478.241C374.859 478.224 374.859 478.208 374.859 478.192C374.859 478.176 374.859 478.159 374.859 478.143C374.859 478.127 374.859 478.111 374.859 478.094C374.859 478.078 374.859 478.062 374.859 478.046C374.859 478.029 374.859 478.013 374.859 477.997C374.859 477.98 374.859 477.964 374.859 477.948C374.859 477.931 374.859 477.915 374.859 477.899C374.859 477.882 374.859 477.866 374.859 477.849C374.859 477.833 374.859 477.817 374.859 477.8C374.859 477.784 374.859 477.767 374.859 477.751C374.859 477.734 374.859 477.718 374.859 477.702C374.859 477.685 374.859 477.669 374.859 477.652C374.859 477.636 374.859 477.619 374.859 477.603C374.859 477.586 374.859 477.57 374.859 477.553C374.859 477.537 374.859 477.52 374.859 477.504C374.859 477.487 374.859 477.47 374.859 477.454C374.859 477.437 374.859 477.421 374.859 477.404C374.859 477.388 374.859 477.371 374.859 477.354C374.859 477.338 374.859 477.321 374.859 477.304C374.859 477.288 374.859 477.271 374.859 477.255C374.859 477.238 374.859 477.221 374.859 477.205C374.859 477.188 374.859 477.171 374.859 477.154C374.859 477.138 374.859 477.121 374.859 477.104C374.859 477.088 374.859 477.071 374.859 477.054C374.859 477.037 374.859 477.021 374.859 477.004C374.859 476.987 374.859 476.97 374.859 476.953C374.859 476.937 374.859 476.92 374.859 476.903C374.859 476.886 374.859 476.869 374.859 476.853C374.859 476.836 374.859 476.819 374.859 476.802C374.859 476.785 374.859 476.768 374.859 476.751C374.859 476.735 374.859 476.718 374.859 476.701C374.859 476.684 374.859 476.667 374.859 476.65C374.859 476.633 374.859 476.616 374.859 476.599C374.859 476.582 374.859 476.565 374.859 476.548C374.859 476.531 374.859 476.514 374.859 476.497C374.859 476.48 374.859 476.463 374.859 476.446C374.859 476.429 374.859 476.412 374.859 476.395C374.859 476.378 374.859 476.361 374.859 476.344C374.859 476.327 374.859 476.31 374.859 476.293C374.859 476.276 374.859 476.259 374.859 476.242C374.859 476.224 374.859 476.207 374.859 476.19C374.859 476.173 374.859 476.156 374.859 476.139C374.859 476.122 374.859 476.105 374.859 476.087C374.859 476.07 374.859 476.053 374.859 476.036C374.859 476.019 374.859 476.001 374.859 475.984C374.859 475.967 374.859 475.95 374.859 475.932C374.859 475.915 374.859 475.898 374.859 475.881C374.859 475.863 374.859 475.846 374.859 475.829C374.859 475.812 374.859 475.794 374.859 475.777C374.859 475.76 374.859 475.742 374.859 475.725C374.859 475.708 374.859 475.69 374.859 475.673C374.859 475.656 374.859 475.638 374.859 475.621C374.859 475.604 374.859 475.586 374.859 475.569C374.859 475.551 374.859 475.534 374.859 475.517C374.859 475.499 374.859 475.482 374.859 475.464C374.859 475.447 374.859 475.429 374.859 475.412C374.859 475.394 374.859 475.377 374.859 475.359C374.859 475.342 374.859 475.324 374.859 475.307C374.859 475.289 374.859 475.272 374.859 475.254C374.859 475.237 374.859 475.219 374.859 475.202C374.859 475.184 374.859 475.167 374.859 475.149C374.859 475.132 374.859 475.114 374.859 475.096C374.859 475.079 374.859 475.061 374.859 475.044C374.859 475.026 374.859 475.008 374.859 474.991C374.859 474.973 374.859 474.955 374.859 474.938C374.859 474.92 374.859 474.902 374.859 474.885C374.859 474.867 374.859 474.849 374.859 474.832C374.859 474.814 374.859 474.796 374.859 474.778C374.859 474.761 374.859 474.743 374.859 474.725C374.859 474.707 374.859 474.69 374.859 474.672C374.859 474.654 374.859 474.636 374.859 474.618C374.859 474.601 374.859 474.583 374.859 474.565C374.859 474.547 374.859 474.529 374.859 474.512C374.859 474.494 374.859 474.476 374.859 474.458C374.859 474.44 374.859 474.422 374.859 474.404C374.859 474.386 374.859 474.369 374.859 474.351C374.859 474.333 374.859 474.315 374.859 474.297C374.859 474.279 374.859 474.261 374.859 474.243C374.859 474.225 374.859 474.207 374.859 474.189C374.859 474.171 374.859 474.153 374.859 474.135C374.859 474.117 374.859 474.099 374.859 474.081C374.859 474.063 374.859 474.045 374.859 474.027C374.859 474.009 374.859 473.991 374.859 473.973C374.859 473.955 374.859 473.937 374.859 473.919C374.859 473.9 374.859 473.882 374.859 473.864C374.859 473.846 374.859 473.828 374.859 473.81C374.859 473.792 374.859 473.774 374.859 473.755C374.859 473.737 374.859 473.719 374.859 473.701C374.859 473.683 374.859 473.665 374.859 473.646C374.859 473.628 374.859 473.61 374.859 473.592C374.859 473.574 374.859 473.555 374.859 473.537C374.859 473.519 374.859 473.501 374.859 473.482C374.859 473.464 374.859 473.446 374.859 473.427C374.859 473.409 374.859 473.391 374.859 473.373C374.859 473.354 374.859 473.336 374.859 473.318C374.859 473.299 374.859 473.281 374.859 473.262C374.859 473.244 374.859 473.226 374.859 473.207C374.859 473.189 374.859 473.171 374.859 473.152C374.859 473.134 374.859 473.115 374.859 473.097C374.859 473.079 374.859 473.06 374.859 473.042C374.859 473.023 374.859 473.005 374.859 472.986C374.859 472.968 374.859 472.949 374.859 472.931C374.859 472.912 374.859 472.894 374.859 472.875C374.859 472.857 374.859 472.838 374.859 472.82C374.859 472.801 374.859 472.783 374.859 472.764C374.859 472.746 374.859 472.727 374.859 472.708C374.859 472.69 374.859 472.671 374.859 472.653C374.859 472.634 374.859 472.615 374.859 472.597C374.859 472.578 374.859 472.559 374.859 472.541C374.859 472.522 374.859 472.503 374.859 472.485C374.859 472.466 374.859 472.447 374.859 472.429C374.859 472.41 374.859 472.391 374.859 472.373C374.859 472.354 374.859 472.335 374.859 472.316C374.859 472.298 374.859 472.279 374.859 472.26C374.859 472.241 374.859 472.223 374.859 472.204C374.859 472.185 374.859 472.166 374.859 472.147C374.859 472.129 374.859 472.11 374.859 472.091C374.859 472.072 374.859 472.053 374.859 472.035C374.859 472.016 374.859 471.997 374.859 471.978C374.859 471.959 374.859 471.94 374.859 471.921C374.859 471.902 374.859 471.883 374.859 471.865C374.859 471.846 374.859 471.827 374.859 471.808C374.859 471.789 374.859 471.77 374.859 471.751C374.859 471.732 374.859 471.713 374.859 471.694C374.859 471.675 374.859 471.656 374.859 471.637C374.859 471.618 374.859 471.599 374.859 471.58C374.859 471.561 374.859 471.542 374.859 471.523C374.859 471.504 374.859 471.485 374.859 471.466C374.859 471.447 374.859 471.427 374.859 471.408C374.859 471.389 374.859 471.37 374.859 471.351C374.859 471.332 374.859 471.313 374.859 471.294C374.859 471.274 374.859 471.255 374.859 471.236C374.859 471.217 374.859 471.198 374.859 471.179C374.859 471.159 374.859 471.14 374.859 471.121C374.859 471.102 374.859 471.083 374.859 471.063C374.859 471.044 374.859 471.025 374.859 471.006C374.859 470.986 374.859 470.967 374.859 470.948C374.859 470.929 374.859 470.909 374.859 470.89C374.859 470.871 374.859 470.851 374.859 470.832C374.859 470.813 374.859 470.793 374.859 470.774C374.859 470.755 374.859 470.735 374.859 470.716C374.859 470.697 374.859 470.677 374.859 470.658C374.859 470.638 374.859 470.619 374.859 470.6C374.859 470.58 374.859 470.561 374.859 470.541C374.859 470.522 374.859 470.503 374.859 470.483C374.859 470.464 374.859 470.444 374.859 470.425C374.859 470.405 374.859 470.386 374.859 470.366C374.859 470.347 374.859 470.327 374.859 470.308C374.859 470.288 374.859 470.269 374.859 470.249C374.859 470.23 374.859 470.21 374.859 470.19C374.859 470.171 374.859 470.151 374.859 470.132C374.859 470.112 374.859 470.092 374.859 470.073C374.859 470.053 374.859 470.034 374.859 470.014C374.859 469.994 374.859 469.975 374.859 469.955C374.859 469.935 374.859 469.916 374.859 469.896C374.859 469.876 374.859 469.857 374.859 469.837C374.859 469.817 374.859 469.798 374.859 469.778C374.859 469.758 374.859 469.738 374.859 469.719C374.859 469.699 374.859 469.679 374.859 469.659C374.859 469.64 374.859 469.62 374.859 469.6H372.859ZM372.859 491.2C372.859 494.824 373.697 497.96 375.427 500.555L377.091 499.445C375.621 497.24 374.859 494.51 374.859 491.2H372.859ZM375.47 500.614C377.457 503.168 380.265 505.258 383.84 506.908L384.678 505.092C381.321 503.542 378.795 501.632 377.049 499.386L375.47 500.614ZM383.923 506.942C387.794 508.324 392.448 509 397.859 509V507C392.604 507 388.191 506.342 384.596 505.058L383.923 506.942ZM397.859 509C403.721 509 408.677 507.841 412.672 505.459C416.677 503.07 419.645 499.491 421.584 494.781L419.735 494.019C417.941 498.376 415.242 501.597 411.647 503.741C408.041 505.892 403.465 507 397.859 507V509ZM421.574 494.804C423.638 490.127 425.15 483.103 426.154 473.807C427.159 464.492 427.659 452.82 427.659 438.8H425.659C425.659 452.78 425.16 464.375 424.165 473.593C423.168 482.83 421.681 489.607 419.744 493.996L421.574 494.804ZM427.659 438.8C427.659 425.104 431.343 415.158 438.525 408.746L437.193 407.254C429.442 414.175 425.659 424.762 425.659 438.8H427.659ZM438.525 408.746C445.722 402.321 457.422 399 473.859 399V397C457.23 397 444.93 400.346 437.193 407.254L438.525 408.746ZM473.859 399C491.679 399 503.282 402.474 509.11 409.063L510.608 407.737C504.17 400.459 491.773 397 473.859 397V399ZM509.11 409.063C514.987 415.706 518.059 427.78 518.059 445.6H520.059C520.059 427.686 516.998 414.961 510.608 407.737L509.11 409.063ZM518.059 445.6C518.059 474.835 512.874 497.419 502.617 513.461L504.302 514.539C514.845 498.048 520.059 475.032 520.059 445.6H518.059ZM502.615 513.465C492.582 529.307 480.813 537.853 467.345 539.407L467.574 541.393C481.839 539.747 494.071 530.693 504.304 514.535L502.615 513.465Z" fill="black" mask="url(#path-3-outside-1_57_13)"/>
</g>
<g filter="url(#filter2_d_57_13)">
<mask id="path-5-outside-2_57_13" maskUnits="userSpaceOnUse" x="274" y="126" width="250" height="279" fill="black">
<rect fill="white" x="274" y="126" width="250" height="279"/>
<path d="M522.139 175V294.2C522.139 333.133 512.672 361.133 493.739 378.2C475.072 395 443.472 403.4 398.939 403.4C356.539 403.4 325.339 394.333 305.339 376.2C285.606 358.067 275.739 330.733 275.739 294.2V175C275.739 160.867 279.872 149.4 288.139 140.6C296.672 131.533 307.339 127 320.139 127C335.872 127 347.739 129.933 355.739 135.8C364.006 141.667 368.139 153.533 368.139 171.4V301.8C368.406 310.333 369.739 317.133 372.139 322.2C374.806 327.267 378.272 330.867 382.539 333C386.806 334.867 392.272 335.8 398.939 335.8C405.606 335.8 411.072 335 415.339 333.4C419.606 331.8 422.672 329.267 424.539 325.8C426.672 322.333 428.006 318.867 428.539 315.4C429.339 311.933 429.739 307.4 429.739 301.8V171C429.739 161.933 430.806 154.333 432.939 148.2C435.339 142.067 438.806 137.533 443.339 134.6C448.139 131.667 452.939 129.667 457.739 128.6C462.806 127.533 468.806 127 475.739 127C491.206 127 502.806 130.733 510.539 138.2C518.272 145.667 522.139 157.933 522.139 175Z"/>
</mask>
<path d="M522.139 175V294.2C522.139 333.133 512.672 361.133 493.739 378.2C475.072 395 443.472 403.4 398.939 403.4C356.539 403.4 325.339 394.333 305.339 376.2C285.606 358.067 275.739 330.733 275.739 294.2V175C275.739 160.867 279.872 149.4 288.139 140.6C296.672 131.533 307.339 127 320.139 127C335.872 127 347.739 129.933 355.739 135.8C364.006 141.667 368.139 153.533 368.139 171.4V301.8C368.406 310.333 369.739 317.133 372.139 322.2C374.806 327.267 378.272 330.867 382.539 333C386.806 334.867 392.272 335.8 398.939 335.8C405.606 335.8 411.072 335 415.339 333.4C419.606 331.8 422.672 329.267 424.539 325.8C426.672 322.333 428.006 318.867 428.539 315.4C429.339 311.933 429.739 307.4 429.739 301.8V171C429.739 161.933 430.806 154.333 432.939 148.2C435.339 142.067 438.806 137.533 443.339 134.6C448.139 131.667 452.939 129.667 457.739 128.6C462.806 127.533 468.806 127 475.739 127C491.206 127 502.806 130.733 510.539 138.2C518.272 145.667 522.139 157.933 522.139 175Z" fill="#EDFAE9"/>
<path d="M493.739 378.2L494.408 378.943L494.409 378.943L493.739 378.2ZM305.339 376.2L304.662 376.936L304.667 376.941L305.339 376.2ZM288.139 140.6L287.411 139.915L287.41 139.915L288.139 140.6ZM355.739 135.8L355.148 136.606L355.154 136.611L355.16 136.615L355.739 135.8ZM368.139 301.8H367.139V301.816L367.14 301.831L368.139 301.8ZM372.139 322.2L371.235 322.628L371.244 322.647L371.254 322.666L372.139 322.2ZM382.539 333L382.092 333.894L382.115 333.906L382.138 333.916L382.539 333ZM415.339 333.4L414.988 332.464L414.988 332.464L415.339 333.4ZM424.539 325.8L423.687 325.276L423.672 325.3L423.659 325.326L424.539 325.8ZM428.539 315.4L427.565 315.175L427.556 315.211L427.551 315.248L428.539 315.4ZM432.939 148.2L432.008 147.836L432.001 147.853L431.995 147.871L432.939 148.2ZM443.339 134.6L442.818 133.747L442.807 133.753L442.796 133.76L443.339 134.6ZM457.739 128.6L457.533 127.621L457.522 127.624L457.739 128.6ZM510.539 138.2L509.844 138.919L509.844 138.919L510.539 138.2ZM521.139 175V294.2H523.139V175H521.139ZM521.139 294.2C521.139 332.999 511.703 360.661 493.07 377.457L494.409 378.943C513.642 361.606 523.139 333.268 523.139 294.2H521.139ZM493.07 377.457C474.684 394.004 443.398 402.4 398.939 402.4V404.4C443.546 404.4 475.461 395.996 494.408 378.943L493.07 377.457ZM398.939 402.4C356.652 402.4 325.746 393.353 306.011 375.459L304.667 376.941C324.932 395.314 356.426 404.4 398.939 404.4V402.4ZM306.016 375.464C286.555 357.581 276.739 330.559 276.739 294.2H274.739C274.739 330.908 284.656 358.552 304.662 376.936L306.016 375.464ZM276.739 294.2V175H274.739V294.2H276.739ZM276.739 175C276.739 161.075 280.805 149.868 288.868 141.285L287.41 139.915C278.94 148.932 274.739 160.659 274.739 175H276.739ZM288.867 141.285C297.206 132.426 307.606 128 320.139 128V126C307.072 126 296.139 130.641 287.411 139.915L288.867 141.285ZM320.139 128C335.775 128 347.393 130.92 355.148 136.606L356.33 134.994C348.085 128.947 335.97 126 320.139 126V128ZM355.16 136.615C363.014 142.189 367.139 153.616 367.139 171.4H369.139C369.139 153.45 364.998 141.144 356.318 134.984L355.16 136.615ZM367.139 171.4V301.8H369.139V171.4H367.139ZM367.14 301.831C367.408 310.437 368.754 317.389 371.235 322.628L373.043 321.772C370.724 316.877 369.403 310.229 369.139 301.769L367.14 301.831ZM371.254 322.666C373.998 327.88 377.603 331.65 382.092 333.894L382.986 332.106C378.942 330.083 375.613 326.654 373.024 321.734L371.254 322.666ZM382.138 333.916C386.573 335.857 392.189 336.8 398.939 336.8V334.8C392.355 334.8 387.038 333.877 382.94 332.084L382.138 333.916ZM398.939 336.8C405.675 336.8 411.272 335.993 415.69 334.336L414.988 332.464C410.873 334.007 405.536 334.8 398.939 334.8V336.8ZM415.69 334.336C420.146 332.666 423.42 329.987 425.42 326.274L423.659 325.326C421.924 328.546 419.066 330.934 414.988 332.464L415.69 334.336ZM425.391 326.324C427.583 322.762 428.971 319.17 429.527 315.552L427.551 315.248C427.041 318.563 425.762 321.905 423.687 325.276L425.391 326.324ZM429.513 315.625C430.337 312.055 430.739 307.438 430.739 301.8H428.739C428.739 307.362 428.341 311.812 427.565 315.175L429.513 315.625ZM430.739 301.8V171H428.739V301.8H430.739ZM430.739 171C430.739 162.004 431.798 154.523 433.884 148.529L431.995 147.871C429.813 154.143 428.739 161.862 428.739 171H430.739ZM433.87 148.564C436.211 142.583 439.561 138.236 443.882 135.44L442.796 133.76C438.051 136.831 434.467 141.551 432.008 147.836L433.87 148.564ZM443.861 135.453C448.58 132.569 453.278 130.616 457.956 129.576L457.522 127.624C452.6 128.718 447.698 130.764 442.818 133.747L443.861 135.453ZM457.945 129.579C462.926 128.53 468.853 128 475.739 128V126C468.758 126 462.686 126.537 457.533 127.621L457.945 129.579ZM475.739 128C491.06 128 502.366 131.699 509.844 138.919L511.234 137.481C503.246 129.768 491.351 126 475.739 126V128ZM509.844 138.919C517.294 146.112 521.139 158.05 521.139 175H523.139C523.139 157.817 519.251 145.221 511.234 137.481L509.844 138.919Z" fill="black" mask="url(#path-5-outside-2_57_13)"/>
</g>
</g>
<defs>
<filter id="filter0_d_57_13" x="21" y="25" width="758" height="758" filterUnits="userSpaceOnUse" color-interpolation-filters="sRGB">
<feFlood flood-opacity="0" result="BackgroundImageFix"/>
<feColorMatrix in="SourceAlpha" type="matrix" values="0 0 0 0 0 0 0 0 0 0 0 0 0 0 0 0 0 0 127 0" result="hardAlpha"/>
<feOffset dy="4"/>
<feGaussianBlur stdDeviation="2"/>
<feComposite in2="hardAlpha" operator="out"/>
<feColorMatrix type="matrix" values="0 0 0 0 0 0 0 0 0 0 0 0 0 0 0 0 0 0 0.25 0"/>
<feBlend mode="normal" in2="BackgroundImageFix" result="effect1_dropShadow_57_13"/>
<feBlend mode="normal" in="SourceGraphic" in2="effect1_dropShadow_57_13" result="shape"/>
</filter>
<filter id="filter1_d_57_13" x="278.259" y="398" width="247.2" height="282" filterUnits="userSpaceOnUse" color-interpolation-filters="sRGB">
<feFlood flood-opacity="0" result="BackgroundImageFix"/>
<feColorMatrix in="SourceAlpha" type="matrix" values="0 0 0 0 0 0 0 0 0 0 0 0 0 0 0 0 0 0 127 0" result="hardAlpha"/>
<feOffset dy="4"/>
<feGaussianBlur stdDeviation="2"/>
<feComposite in2="hardAlpha" operator="out"/>
<feColorMatrix type="matrix" values="0 0 0 0 0 0 0 0 0 0 0 0 0 0 0 0 0 0 0.25 0"/>
<feBlend mode="normal" in2="BackgroundImageFix" result="effect1_dropShadow_57_13"/>
<feBlend mode="normal" in="SourceGraphic" in2="effect1_dropShadow_57_13" result="shape"/>
</filter>
<filter id="filter2_d_57_13" x="271.739" y="127" width="254.4" height="284.4" filterUnits="userSpaceOnUse" color-interpolation-filters="sRGB">
<feFlood flood-opacity="0" result="BackgroundImageFix"/>
<feColorMatrix in="SourceAlpha" type="matrix" values="0 0 0 0 0 0 0 0 0 0 0 0 0 0 0 0 0 0 127 0" result="hardAlpha"/>
<feOffset dy="4"/>
<feGaussianBlur stdDeviation="2"/>
<feComposite in2="hardAlpha" operator="out"/>
<feColorMatrix type="matrix" values="0 0 0 0 0 0 0 0 0 0 0 0 0 0 0 0 0 0 0.25 0"/>
<feBlend mode="normal" in2="BackgroundImageFix" result="effect1_dropShadow_57_13"/>
<feBlend mode="normal" in="SourceGraphic" in2="effect1_dropShadow_57_13" result="shape"/>
</filter>
<linearGradient id="paint0_linear_57_13" x1="25" y1="400" x2="775" y2="400" gradientUnits="userSpaceOnUse">
<stop offset="0.524" stop-color="#254E58"/>
<stop offset="1" stop-color="#112D32"/>
</linearGradient>
</defs>
</svg>
